<svg xmlns="http://www.w3.org/2000/svg" xmlns:xlink="http://www.w3.org/1999/xlink" xmlns:lucid="lucid" width="1600" height="655.56"><g transform="translate(-140 -140)" lucid:page-tab-id="PgO56IPG8NRr"><path d="M160 160h1560v615.56H160z" stroke="#000" stroke-width="2" fill="#c92d39" fill-opacity=".18"/><path d="M660 196.23h459.5v220H660z" stroke="#000" stroke-width="2" fill="#fff"/><path d="M660 244.5h459.5M660 327.7h459.5" stroke="#000" stroke-width="2" fill="none"/><use xlink:href="#a" transform="matrix(1,0,0,1,668,204.23459688112763) translate(54.990123456790144 21.877777777777776)"/><use xlink:href="#b" transform="matrix(1,0,0,1,672,335.6897312540851) translate(0 40.98888888888889)"/><use xlink:href="#c" transform="matrix(1,0,0,1,672,335.6897312540851) translate(19.327160493827158 40.98888888888889)"/><use xlink:href="#d" transform="matrix(1,0,0,1,672,335.6897312540851) translate(289.59567901234544 40.98888888888889)"/><use xlink:href="#e" transform="matrix(1,0,0,1,672,335.6897312540851) translate(309.4839506172837 40.98888888888889)"/><path d="M799.5 515.54h320v231h-320z" stroke="#000" stroke-width="2" fill="#fff"/><path d="M799.5 563.8h320m-320 75.1h320" stroke="#000" stroke-width="2" fill="none"/><use xlink:href="#f" transform="matrix(1,0,0,1,807.5,523.541794941161) translate(139.30246913580248 21.877777777777776)"/><use xlink:href="#b" transform="matrix(1,0,0,1,811.5,646.9084616078277) translate(0 37.022222222222226)"/><use xlink:href="#g" transform="matrix(1,0,0,1,811.5,646.9084616078277) translate(19.327160493827158 37.022222222222226)"/><use xlink:href="#h" transform="matrix(1,0,0,1,811.5,646.9084616078277) translate(122.75864197530865 37.022222222222226)"/><use xlink:href="#b" transform="matrix(1,0,0,1,811.5,646.9084616078277) translate(0 63.95555555555555)"/><use xlink:href="#i" transform="matrix(1,0,0,1,811.5,646.9084616078277) translate(19.327160493827158 63.95555555555555)"/><use xlink:href="#j" transform="matrix(1,0,0,1,811.5,646.9084616078277) translate(126.49938271604935 63.95555555555555)"/><path d="M1180 349.8h500v220h-500z" stroke="#000" stroke-width="2" fill="#fff"/><path d="M1180 398.07h500m-500 83.38h500" stroke="#000" stroke-width="2" fill="none"/><use xlink:href="#k" transform="matrix(1,0,0,1,1188,357.80207001613223) translate(128.4317901234568 21.877777777777776)"/><use xlink:href="#b" transform="matrix(1,0,0,1,1192,489.4473486512344) translate(0 40.98888888888889)"/><use xlink:href="#l" transform="matrix(1,0,0,1,1192,489.4473486512344) translate(19.327160493827158 40.98888888888889)"/><use xlink:href="#d" transform="matrix(1,0,0,1,1192,489.4473486512344) translate(283.361111111111 40.98888888888889)"/><use xlink:href="#m" transform="matrix(1,0,0,1,1192,489.4473486512344) translate(303.24938271604924 40.98888888888889)"/><use xlink:href="#n" transform="matrix(1,0,0,1,1192,489.4473486512344) translate(334.35987654320974 40.98888888888889)"/><use xlink:href="#o" transform="matrix(1,0,0,1,1192,489.4473486512344) translate(362.9765432098764 40.98888888888889)"/><use xlink:href="#p" transform="matrix(1,0,0,1,1192,489.4473486512344) translate(391.5932098765431 40.98888888888889)"/><path d="M763.22 447.98v183.06h34.28" stroke="#000" stroke-width="2" fill="none"/><path d="M763.22 418.65l14.85 14.85-14.85 15.15-14.85-15.15z" stroke="#000" stroke-width="2" fill="#fff"/><path d="M798.5 632.04h-1.03v-2h1.03z"/><use xlink:href="#q" transform="matrix(1,0,0,1,706.667589378312,490.22729976815197) translate(0 21.511111111111106)"/><use xlink:href="#r" transform="matrix(1,0,0,1,706.667589378312,490.22729976815197) translate(23.154320987654316 21.511111111111106)"/><path d="M1151.25 306.23H1430v41.57" stroke="#000" stroke-width="2" fill="none"/><path d="M1121.9 306.23l14.86-14.84 15.15 14.83-15.14 14.85z" stroke="#000" stroke-width="2" fill="#fff"/><path d="M1431 348.8h-2v-1.02h2z"/><use xlink:href="#q" transform="matrix(1,0,0,1,1234.0758388585562,269.967930214461) translate(0 21.511111111111106)"/><use xlink:href="#s" transform="matrix(1,0,0,1,1234.0758388585562,269.967930214461) translate(23.154320987654316 21.511111111111106)"/><path d="M200 458h420v192H200z" stroke="#000" stroke-width="2" fill="#fff"/><path d="M200 506.27h420m-420 69.37h420" stroke="#000" stroke-width="2" fill="none"/><use xlink:href="#t" transform="matrix(1,0,0,1,208,466) translate(120.8851851851852 21.877777777777776)"/><use xlink:href="#b" transform="matrix(1,0,0,1,212,583.6375641372472) translate(0 33.98888888888889)"/><use xlink:href="#u" transform="matrix(1,0,0,1,212,583.6375641372472) translate(19.327160493827158 33.98888888888889)"/><use xlink:href="#j" transform="matrix(1,0,0,1,212,583.6375641372472) translate(65.33827160493826 33.98888888888889)"/><path d="M410 426.25V306.23h248" stroke="#000" stroke-width="2" fill="none"/><path d="M410 455.6l-14.85-14.86L410 425.6l14.85 15.14z" stroke="#000" stroke-width="2" fill="#fff"/><path d="M659 307.23h-1.03v-2H659z"/><use xlink:href="#q" transform="matrix(1,0,0,1,428.851459378615,269.967930214461) translate(0 21.511111111111106)"/><use xlink:href="#v" transform="matrix(1,0,0,1,428.851459378615,269.967930214461) translate(23.154320987654316 21.511111111111106)"/><path d="M220 518h348.15v38.56H220z" fill="#fff" fill-opacity="0"/><path d="M247.8 537.24h-11.4v11.4h-2.9v-11.4h-11.4v-2.9h11.4v-11.4h2.9v11.4h11.4v2.9M281.47 527.88l.7.18c-1.45 8.65-6.04 19.14-17.97 19.58-.6 0-1.23-.3-1.23-.96 0-.18.05-.35.14-.57l4.03-14.55c.04-.22.1-.57.1-.74 0-.95-.98-1.13-2.86-1.17v-.7l7.13-1.36.13.1-4.6 16.52c8.93-.84 12.7-10.07 14.44-16.32M298.76 532.32l.2.2-1.22 4.7-1.85 6.76c-.97 3.52-2.02 7.1-2.02 7.6 0 .37.15.62.56.62.52 0 .86-.28 2.53-2.2l.37.32c-1.5 2.25-3 3.52-4.54 3.52-.8 0-1.27-.56-1.27-1.4 0-.7.06-1.2.4-2.74-1.82 3.06-3.4 4.08-5.5 4.08-2 0-3.3-1.27-3.3-3.62 0-5 5-10.35 9.02-10.35 1.3 0 1.82.6 2 1.8h.04l1.38-5.04c.46-1.64.43-1.76.43-2.2 0-.64-.27-.74-1.97-.8v-.52c1.98-.2 3.1-.38 4.73-.72m-5.1 9.96c0-1.1-.74-1.76-1.45-1.76-.86 0-1.94.52-2.8 1.42-2.04 2.16-3.6 5.53-3.6 8.1 0 1.42.72 2.25 1.8 2.25 2.85 0 6.06-5.32 6.06-10.02M306.96 553.02l-.44-.83c2.4-1.63 3.63-3.25 3.63-4.7 0-.3-.27-.56-.62-.56-.34 0-.78.18-1.26.18-1.62 0-2.54-.75-2.54-2.23 0-1.5 1.05-2.5 2.62-2.5 1.97 0 3.5 1.52 3.5 3.8 0 2.62-1.88 5.38-4.9 6.82M356.66 537.24h-11.4v11.4h-2.9v-11.4h-11.4v-2.9h11.4v-11.4h2.9v11.4h11.4v2.9M390.33 527.88l.7.18c-1.45 8.65-6.04 19.14-17.97 19.58-.6 0-1.23-.3-1.23-.96 0-.18.05-.35.13-.57l4.03-14.55c.03-.22.07-.57.07-.74 0-.95-.96-1.13-2.84-1.17v-.7l7.13-1.36.13.1-4.6 16.52c8.92-.84 12.68-10.07 14.43-16.32M383.42 521.24c0 1.26-1 2.14-2.2 2.14-1.17 0-2.13-.96-2.13-2.14 0-1.2.82-2.2 2.13-2.2 1.36 0 2.2.97 2.2 2.2M395.18 553.02l-.44-.83c2.4-1.63 3.63-3.25 3.63-4.7 0-.3-.26-.56-.6-.56-.36 0-.8.18-1.28.18-1.63 0-2.55-.75-2.55-2.23 0-1.5 1.05-2.5 2.63-2.5 1.96 0 3.5 1.52 3.5 3.8 0 2.62-1.88 5.38-4.9 6.82M444.9 537.24h-11.42v11.4h-2.9v-11.4h-11.4v-2.9h11.4v-11.4h2.9v11.4h11.4v2.9M478.55 527.88l.7.18c-1.44 8.65-6.03 19.14-17.97 19.58-.6 0-1.22-.3-1.22-.96 0-.18.04-.35.13-.57l4-14.55c.05-.22.1-.57.1-.74 0-.95-.96-1.13-2.84-1.17v-.7l7.12-1.36.13.1-4.58 16.52c8.92-.84 12.68-10.07 14.43-16.32M473.96 518.74h1.27c-.92 3.33-2.2 4.64-4.6 4.64-1.1 0-1.74-.18-3.53-1.05-1.67-.8-2.02-.96-2.8-.96-1 0-1.75.65-2.23 2h-1.27c.66-2.83 2.23-4.4 4.42-4.4.96 0 2 .25 3.06.78 1.88.96 2.5 1.22 3.36 1.22 1 0 1.58-.6 2.32-2.23M483.36 553.02l-.44-.83c2.4-1.63 3.63-3.25 3.63-4.7 0-.3-.26-.56-.6-.56-.36 0-.8.18-1.28.18-1.62 0-2.54-.75-2.54-2.23 0-1.5 1.05-2.5 2.63-2.5 1.96 0 3.5 1.52 3.5 3.8 0 2.62-1.9 5.38-4.9 6.82M533.07 537.24h-11.4v11.4h-2.9v-11.4h-11.4v-2.9h11.4v-11.4h2.9v11.4h11.4v2.9M553.88 536.9l.08.03c4.2-6.73 7.22-9.36 9.66-9.36 1.67 0 3.1.8 3.1 2.5 0 .96-.12 1.57-.43 2.75l-3.8 14.03c-.76 2.7-1.32 6.12-1.32 7.48 0 .6.22 1.18.35 1.5h-3.2c-.4-.5-.48-1.15-.48-1.94 0-1.1.22-2.98 1.45-7.44l3.28-11.98c.13-.44.6-2.58.6-3.15 0-.65-.04-1.53-1.1-1.53-2.22 0-7.64 6.56-9.38 12.42l-1.4 4.63h-3.28l3.58-13.33c.3-1.1.6-2.1.6-2.7 0-.4-.12-.75-.6-.75-.78 0-2.1 1.75-2.75 2.53l-.53-.44c.13-.2.62-1 1.27-1.8 1.26-1.56 2.92-2.65 4.23-2.65 1.36 0 1.75.88 1.75 1.97 0 1.84-1.22 5.7-1.7 7.22"/><path d="M860 575.54h201.06v42.9H860z" fill="#fff" fill-opacity="0"/><path d="M887.8 595.2h-11.4v11.42h-2.9v-11.4h-11.4v-2.9h11.4v-11.4h2.9v11.4h11.4v2.9M933.67 576.28v.7c-1.1 0-2.1.66-3.37 1.62l-13.03 9.84 7.35 12.8c1.35 2.37 1.8 2.63 4.54 2.9v.7h-12.02v-.7l1.27-.14c1.36-.13 2.02-.66 2.02-1.4 0-.92-.83-2.18-1.62-3.58l-5.38-9.4-2.84 10.36c-.35 1.22-.48 1.75-.48 2.23 0 1.36.7 1.7 3.1 1.93v.7h-10.8v-.7c2.63-.3 2.9-.8 3.55-3.1l5.42-19.46c.3-1.1.6-2 .6-2.7 0-1.2-.73-1.76-3.44-1.9v-.7h11.8v.7c-2.27.2-3.67.8-4.33 3.25l-2.3 8.48 6.67-4.77c3.9-2.75 6.26-4.94 6.26-6 0-.47-.53-.7-1.58-.82L924 577v-.7h9.67M937.9 598.18l-.9 3.1c1.67-2.5 3.43-3.5 5.3-3.5 2.28 0 3.54 1.46 3.54 3.87 0 5.1-4.66 10.1-9.18 10.1-.7 0-1.36-.12-2.13-.52-.53 2.16-1.24 4.7-1.24 5.13 0 .68.46.9 1.9.9v.5h-6.27v-.5c1.33-.03 1.73-.5 2.1-1.95l3.56-13.34c.33-1.24.5-2.04.5-2.2 0-.74-.88-.83-1.38-.83h-.68l-.06-.47 4.83-.68c.1 0 .16.06.16.13l-.06.28m5.16 3.56c0-1.76-.52-2.63-1.92-2.63-1.63 0-3.46 1.68-4.17 3.54-.9 2.3-2 6.3-2 7.35 0 .67.6 1.17 1.48 1.17 1.63 0 3.12-1.02 4.48-2.94 1.48-2.07 2.13-4.33 2.13-6.5M954.87 611l-.44-.84c2.4-1.6 3.63-3.23 3.63-4.67 0-.32-.26-.58-.6-.58-.36 0-.8.17-1.28.17-1.62 0-2.54-.75-2.54-2.24 0-1.48 1.05-2.5 2.63-2.5 1.96 0 3.5 1.54 3.5 3.8 0 2.64-1.9 5.4-4.9 6.83M1004.58 595.2h-11.4v11.42h-2.9v-11.4h-11.4v-2.9h11.4v-11.4h2.9v11.4h11.4v2.9M1050.44 576.28v.7c-1.1 0-2.1.66-3.37 1.62l-13.03 9.84 7.35 12.8c1.34 2.37 1.78 2.63 4.53 2.9v.7h-12.02v-.7l1.28-.14c1.35-.13 2-.66 2-1.4 0-.92-.82-2.18-1.6-3.58l-5.4-9.4-2.83 10.36c-.35 1.22-.48 1.75-.48 2.23 0 1.36.7 1.7 3.1 1.93v.7h-10.8v-.7c2.63-.3 2.9-.8 3.55-3.1l5.42-19.46c.3-1.1.6-2 .6-2.7 0-1.2-.73-1.76-3.44-1.9v-.7h11.8v.7c-2.27.2-3.67.8-4.33 3.25l-2.3 8.48 6.68-4.77c3.9-2.75 6.25-4.94 6.25-6 0-.47-.53-.7-1.58-.82l-1.05-.12v-.7h9.67M1056.18 592.9c0 .86-.7 1.57-1.5 1.57-.9 0-1.5-.64-1.5-1.63 0-.96.62-1.64 1.46-1.64.83 0 1.54.8 1.54 1.7m-1.3 15l.4.33c-1.7 2.6-2.68 3.53-4.23 3.53-1.02 0-1.5-.56-1.5-1.7 0-.62.2-1.7.67-3.44l1.48-5.47c.16-.55.28-1.1.28-1.36 0-.63-.3-.72-1.98-.75v-.5c1.2-.1 1.83-.18 4.95-.77l.12.1-2.9 10.6c-.16.52-.3.93-.3 1.36 0 .3.17.46.42.46.5 0 1.26-.65 2.6-2.4"/><path d="M706.36 260h366.78v51.1H706.36z" fill="#fff" fill-opacity="0"/><path d="M734.17 291.74h-11.4v11.4h-2.9v-11.4h-11.4v-2.9h11.4v-11.4h2.9v11.4h11.4v2.9M786.58 272.8v.7c-2.5.4-2.93 1-3.54 3.24l-5.37 19.37c-.3 1.1-.62 2.02-.62 2.72 0 1.14.8 1.75 3.54 1.84l-.05.7H768.7v-.7c2.84-.3 3.72-1.05 4.46-3.76l5.5-20.07-16.43 24.53h-.74l-2.72-23.87-5.16 18.7c-.22.8-.4 1.88-.4 2.36 0 1.22.84 1.92 3.07 2.1v.7h-8.63v-.7c2.28-.26 2.98-.96 4.38-5.86l4.98-17.53c.35-1.18.52-1.92.52-2.27 0-.84-1.04-1.36-3.23-1.5v-.7h7.9l2.46 21.52 14.65-21.5h7.25M773.77 268.6h-1.48l-5.35-4.5-5.3 4.5h-1.47l5.42-7.3h2.7M790.2 307.52l-.42-.83c2.4-1.63 3.62-3.24 3.62-4.7 0-.3-.26-.56-.6-.56-.36 0-.8.18-1.28.18-1.6 0-2.53-.74-2.53-2.23 0-1.5 1.04-2.5 2.6-2.5 1.98 0 3.5 1.53 3.5 3.8 0 2.62-1.87 5.38-4.9 6.82M839.92 291.74h-11.4v11.4h-2.9v-11.4h-11.4v-2.9h11.4v-11.4h2.9v11.4h11.4v2.9M884.34 272.33l-1.62 8.74-.8-.13c-.5-4.68-2.65-7.12-6.5-7.12-3.24 0-6.3 1.66-8.7 4.24-3.15 3.36-4.72 8.35-4.72 13.15 0 6.14 2.8 8.98 7.65 8.98 3.58 0 6.2-1.27 10-5.2l.8.65c-3.94 4.63-7.44 6.5-11.94 6.5-6.68 0-11.4-4.18-11.4-11.4 0-6.16 3.37-11.9 8.18-15.3 2.8-2 6.12-3.2 9.57-3.2 1.44 0 3.28.1 5.12.75.87.3 1.4.3 1.8.3.86 0 1.3-.25 1.65-.95h.92M875.03 268.04h-1.5l-5.32-4.5-5.28 4.5h-1.5l5.43-7.3h2.7M888 307.52l-.43-.83c2.4-1.63 3.63-3.24 3.63-4.7 0-.3-.26-.56-.6-.56-.36 0-.8.18-1.28.18-1.62 0-2.53-.74-2.53-2.23 0-1.5 1.03-2.5 2.6-2.5 1.98 0 3.5 1.53 3.5 3.8 0 2.62-1.87 5.38-4.9 6.82M937.72 291.74h-11.4v11.4h-2.9v-11.4h-11.4v-2.9h11.4v-11.4h2.9v11.4h11.4v2.9M957.74 272.8h12.1c7.66 0 12.78 4.12 12.78 11.77 0 5.42-2.7 9.84-7 13.16-3.2 2.5-7.6 3.63-12.72 3.63h-11.24v-.7c2.45-.44 2.9-.75 3.6-3.32l5.32-19.46c.3-1.1.48-1.92.48-2.58 0-1.18-.65-1.7-3.32-1.8v-.7m7.83 3.03l-5.16 18.45c-.74 2.7-.95 3.58-.95 4.15 0 1.13.96 1.62 2.97 1.62 4.4 0 7.82-1.32 10.53-3.94 3.1-3 4.8-8.16 4.8-12.58 0-3.5-1.25-6.25-3.4-7.87-1.35-1-3.2-1.53-5.72-1.53-1.67 0-2.63.18-3.06 1.7M972.9 268.6h-1.48l-5.33-4.5-5.3 4.5h-1.5l5.44-7.3h2.7M987.25 307.52l-.44-.83c2.42-1.63 3.64-3.24 3.64-4.7 0-.3-.26-.56-.6-.56-.36 0-.8.18-1.28.18-1.62 0-2.53-.74-2.53-2.23 0-1.5 1.05-2.5 2.62-2.5 1.97 0 3.5 1.53 3.5 3.8 0 2.62-1.88 5.38-4.9 6.82M1036.9 291.74h-11.4v11.4h-2.88v-11.4h-11.4v-2.9h11.4v-11.4h2.88v11.4h11.4v2.9M1071.84 285.36h-2.14c.4.78.4 1.48.4 2.23 0 3.66-4.03 7.16-8.1 7.16-.47 0-.95-.05-1.35-.14-.13-.04-.22-.04-.3-.04-.75 0-1.58.88-1.58 1.8 0 .78 1.18 1.35 3.1 1.83 4.2 1.02 6.2 2.94 6.2 5.56 0 3.8-3.35 6.6-9.17 6.6-4.46 0-7.3-1.57-7.3-4.72 0-2.23.83-3.4 5.12-6-.8-.47-1.18-1.12-1.18-1.7 0-1.26 1-2.57 3.36-3.66-2.44-.88-3.45-2.45-3.45-4.73 0-4.46 4.37-7.47 8.8-7.47 1.65 0 3.1.4 4.27 1.22.35.26.57.35.7.35h2.62v1.7m-5.2.8c0-2.32-.83-3.1-2.45-3.1-2.72 0-5.34 3.18-5.34 7.5 0 2.06.96 3.3 2.62 3.3 1.5 0 2.67-.8 3.72-2.6.87-1.48 1.44-3.27 1.44-5.1m-1.18 19.14c0-2.02-1.57-3.24-6.25-4.7-.56-.16-1-.3-1.48-.47-.4 0-2.23 1.5-2.84 2.28-.65.84-.87 1.54-.87 2.54 0 3.06 2.06 4.46 5.56 4.46 3.54 0 5.9-1.88 5.9-4.1M1067.3 277.88h-1.5l-5.32-4.5-5.3 4.5h-1.48l5.42-7.3h2.7"/><path d="M1226.6 420h366.8v39.6h-366.8z" fill="#fff" fill-opacity="0"/><path d="M1254.42 440.24h-11.4v11.4h-2.9v-11.4h-11.4v-2.9h11.4v-11.4h2.9v11.4h11.4v2.9M1306.83 421.3v.7c-2.5.4-2.93 1-3.54 3.24l-5.38 19.37c-.3 1.1-.62 2.02-.62 2.72 0 1.14.8 1.75 3.54 1.84l-.04.7h-11.85v-.7c2.84-.3 3.72-1.05 4.46-3.76l5.52-20.07-16.44 24.53h-.74l-2.7-23.87-5.17 18.7c-.22.8-.4 1.88-.4 2.36 0 1.22.84 1.92 3.07 2.1v.7h-8.62v-.7c2.28-.26 2.98-.96 4.38-5.86l4.98-17.53c.35-1.18.52-1.93.52-2.27 0-.84-1.04-1.36-3.23-1.5v-.7h7.9l2.46 21.52 14.65-21.5h7.25M1310.46 456.02l-.43-.83c2.4-1.63 3.62-3.24 3.62-4.7 0-.3-.26-.56-.6-.56-.36 0-.8.18-1.28.18-1.6 0-2.53-.74-2.53-2.23 0-1.5 1.05-2.5 2.62-2.5 1.97 0 3.5 1.53 3.5 3.8 0 2.62-1.88 5.38-4.9 6.82M1360.17 440.24h-11.4v11.4h-2.9v-11.4h-11.4v-2.9h11.4v-11.4h2.9v11.4h11.4v2.9M1404.6 420.83l-1.63 8.74-.8-.13c-.5-4.68-2.65-7.13-6.5-7.13-3.24 0-6.3 1.68-8.7 4.26-3.15 3.36-4.72 8.35-4.72 13.15 0 6.14 2.8 8.98 7.65 8.98 3.58 0 6.2-1.27 10-5.2l.8.65c-3.94 4.63-7.44 6.5-11.94 6.5-6.7 0-11.4-4.18-11.4-11.4 0-6.16 3.36-11.9 8.17-15.3 2.8-2 6.12-3.2 9.57-3.2 1.44 0 3.28.1 5.12.75.87.3 1.4.3 1.8.3.86 0 1.3-.25 1.65-.95h.92M1408.26 456.02l-.44-.83c2.4-1.63 3.63-3.24 3.63-4.7 0-.3-.26-.56-.6-.56-.36 0-.8.18-1.28.18-1.62 0-2.53-.74-2.53-2.23 0-1.5 1.04-2.5 2.62-2.5 1.97 0 3.5 1.53 3.5 3.8 0 2.62-1.88 5.38-4.9 6.82M1457.97 440.24h-11.4v11.4h-2.9v-11.4h-11.4v-2.9h11.4v-11.4h2.9v11.4h11.4v2.9M1478 421.3h12.1c7.65 0 12.77 4.12 12.77 11.77 0 5.42-2.7 9.84-7 13.16-3.2 2.5-7.6 3.63-12.72 3.63h-11.24v-.7c2.46-.44 2.9-.75 3.6-3.32l5.33-19.46c.3-1.1.48-1.92.48-2.58 0-1.18-.64-1.7-3.3-1.8v-.7m7.82 3.03l-5.16 18.44c-.75 2.72-.96 3.6-.96 4.16 0 1.13.96 1.62 2.97 1.62 4.4 0 7.82-1.32 10.53-3.94 3.1-3 4.8-8.16 4.8-12.58 0-3.5-1.25-6.25-3.4-7.87-1.35-1-3.2-1.53-5.72-1.53-1.67 0-2.63.18-3.06 1.7M1507.5 456.02l-.44-.83c2.4-1.63 3.63-3.24 3.63-4.7 0-.3-.27-.56-.62-.56s-.8.18-1.27.18c-1.6 0-2.52-.74-2.52-2.23 0-1.5 1.05-2.5 2.62-2.5 1.97 0 3.5 1.53 3.5 3.8 0 2.62-1.88 5.38-4.9 6.82M1557.16 440.24h-11.4v11.4h-2.9v-11.4h-11.4v-2.9h11.4v-11.4h2.9v11.4h11.4v2.9M1592.1 433.86h-2.15c.4.78.4 1.48.4 2.23 0 3.66-4.03 7.16-8.1 7.16-.47 0-.95-.05-1.35-.14-.13-.04-.22-.04-.3-.04-.75 0-1.58.88-1.58 1.8 0 .78 1.18 1.35 3.1 1.83 4.2 1.02 6.2 2.94 6.2 5.56 0 3.8-3.35 6.6-9.17 6.6-4.46 0-7.3-1.57-7.3-4.72 0-2.23.83-3.4 5.12-6-.8-.47-1.18-1.12-1.18-1.7 0-1.26 1-2.57 3.35-3.67-2.44-.87-3.45-2.44-3.45-4.72 0-4.46 4.37-7.47 8.8-7.47 1.65 0 3.1.4 4.27 1.22.35.26.57.35.7.35h2.62v1.7m-5.2.8c0-2.32-.84-3.1-2.46-3.1-2.7 0-5.33 3.18-5.33 7.5 0 2.06.97 3.3 2.63 3.3 1.5 0 2.67-.8 3.72-2.6.87-1.48 1.44-3.27 1.44-5.1m-1.2 19.14c0-2.02-1.56-3.24-6.24-4.7-.57-.16-1-.3-1.5-.47-.38 0-2.22 1.5-2.83 2.28-.65.84-.87 1.54-.87 2.54 0 3.06 2.05 4.46 5.55 4.46 3.55 0 5.9-1.88 5.9-4.1"/><path d="M820 348.52h140v30.04H820z" fill="#fff" fill-opacity="0"/><path d="M835.1 356.22l.53.13c-1.12 6.75-4.7 14.92-14 15.26-.47 0-.95-.23-.95-.74 0-.13.04-.27.1-.44l3.14-11.34c.03-.17.06-.45.06-.58 0-.75-.74-.9-2.2-.92v-.55l5.54-1.05.1.07-3.57 12.87c6.95-.65 9.88-7.83 11.24-12.7M848.56 359.68l.15.14-.93 3.66-1.45 5.28c-.74 2.74-1.56 5.54-1.56 5.92 0 .3.12.48.43.48.4 0 .67-.2 1.97-1.7l.3.24c-1.2 1.75-2.35 2.74-3.56 2.74-.6 0-.97-.43-.97-1.08 0-.56.05-.94.3-2.15-1.4 2.4-2.64 3.2-4.28 3.2-1.56 0-2.57-1-2.57-2.83 0-3.9 3.9-8.06 7.03-8.06 1.02 0 1.43.46 1.57 1.4h.03l1.08-3.92c.36-1.28.34-1.37.34-1.7 0-.52-.22-.6-1.54-.64v-.4c1.54-.15 2.4-.3 3.68-.56m-3.97 7.75c0-.86-.6-1.37-1.14-1.37-.68 0-1.52.4-2.2 1.1-1.58 1.7-2.8 4.32-2.8 6.32 0 1.1.57 1.76 1.4 1.76 2.22 0 4.73-4.15 4.73-7.8M854.94 375.8l-.34-.65c1.88-1.26 2.83-2.52 2.83-3.64 0-.23-.2-.43-.48-.43-.27 0-.6.13-.98.13-1.26 0-1.98-.58-1.98-1.73 0-1.16.8-1.95 2.03-1.95 1.54 0 2.73 1.2 2.73 2.97 0 2.03-1.47 4.18-3.82 5.3M887.1 356.22l.54.13c-1.12 6.75-4.7 14.92-14 15.26-.47 0-.95-.23-.95-.74 0-.13.02-.27.1-.44l3.13-11.34c.03-.17.06-.45.06-.58 0-.75-.76-.9-2.22-.92v-.55l5.55-1.05.1.07-3.57 12.87c6.95-.65 9.87-7.83 11.24-12.7M881.72 351.04c0 1-.8 1.67-1.7 1.67-.93 0-1.68-.74-1.68-1.66 0-.92.65-1.7 1.67-1.7 1.07 0 1.72.75 1.72 1.7M890.84 375.8l-.34-.65c1.88-1.26 2.83-2.52 2.83-3.64 0-.23-.2-.43-.48-.43-.27 0-.6.13-1 .13-1.25 0-1.96-.58-1.96-1.73 0-1.16.8-1.95 2.03-1.95 1.54 0 2.73 1.2 2.73 2.97 0 2.03-1.47 4.18-3.82 5.3M923 356.22l.54.13c-1.12 6.75-4.7 14.92-14 15.26-.48 0-.95-.23-.95-.74 0-.13.02-.27.1-.44l3.12-11.34c.04-.17.07-.45.07-.58 0-.75-.76-.9-2.22-.92v-.55l5.55-1.05.1.07-3.57 12.87c6.94-.65 9.87-7.83 11.23-12.7M919.42 349.1h1c-.73 2.6-1.72 3.6-3.6 3.6-.84 0-1.35-.13-2.75-.8-1.3-.62-1.57-.76-2.18-.76-.8 0-1.37.5-1.75 1.57h-.98c.5-2.2 1.73-3.43 3.44-3.43.76 0 1.57.2 2.4.6 1.46.76 1.93.96 2.6.96.8 0 1.24-.47 1.82-1.73M926.78 375.8l-.35-.65c1.88-1.26 2.83-2.52 2.83-3.64 0-.23-.2-.43-.48-.43-.27 0-.6.13-.98.13-1.26 0-1.98-.58-1.98-1.73 0-1.16.82-1.95 2.05-1.95 1.53 0 2.72 1.2 2.72 2.97 0 2.03-1.47 4.18-3.82 5.3M948.85 363.23l.06.04c3.28-5.25 5.63-7.3 7.54-7.3 1.3 0 2.42.62 2.42 1.95 0 .75-.1 1.23-.34 2.14L955.56 371c-.58 2.1-1.03 4.77-1.03 5.82 0 .48.17.92.28 1.16h-2.48c-.3-.37-.37-.9-.37-1.5 0-.85.17-2.3 1.12-5.8l2.55-9.32c.1-.34.48-2 .48-2.45 0-.5-.03-1.2-.85-1.2-1.74 0-5.96 5.12-7.32 9.7l-1.1 3.6h-2.55l2.8-10.4c.23-.84.47-1.63.47-2.1 0-.3-.1-.58-.48-.58-.6 0-1.63 1.36-2.14 1.97l-.4-.35c.1-.17.47-.78.98-1.4 1-1.22 2.3-2.07 3.3-2.07 1.07 0 1.37.68 1.37 1.53 0 1.44-.95 4.44-1.32 5.63"/><path d="M860 660h71.02v26.1H860z" fill="#fff" fill-opacity="0"/><path d="M879.2 660.45v.43c-.68 0-1.3.4-2.06.98l-7.92 5.98 4.47 7.8c.8 1.42 1.08 1.58 2.75 1.74v.42h-7.3v-.42l.76-.08c.84-.08 1.24-.4 1.24-.85 0-.56-.5-1.33-1-2.18l-3.26-5.7-1.72 6.28c-.22.75-.3 1.07-.3 1.36 0 .83.43 1.05 1.9 1.18v.42h-6.57v-.42c1.58-.2 1.74-.48 2.14-1.9l3.3-11.8c.18-.68.37-1.24.37-1.66 0-.72-.45-1.06-2.1-1.14v-.43h7.18v.43c-1.38.1-2.23.47-2.63 1.96l-1.4 5.16 4.06-2.9c2.37-1.67 3.8-3 3.8-3.64 0-.3-.3-.42-.95-.5l-.64-.08v-.43h5.9M881.76 673.76l-.54 1.88c1-1.52 2.08-2.12 3.2-2.12 1.4 0 2.17.88 2.17 2.35 0 3.1-2.85 6.14-5.6 6.14-.42 0-.82-.06-1.3-.3-.3 1.3-.74 2.85-.74 3.1 0 .43.28.56 1.17.56v.3h-3.82v-.3c.82-.02 1.06-.3 1.3-1.2l2.15-8.1c.2-.76.3-1.24.3-1.34 0-.45-.53-.5-.83-.5h-.4l-.05-.3 2.93-.4c.06 0 .1.04.1.07l-.04.16m3.14 2.17c0-1.08-.32-1.6-1.17-1.6-1 0-2.1 1-2.53 2.14-.55 1.4-1.22 3.83-1.22 4.47 0 .42.37.72.9.72 1 0 1.9-.62 2.72-1.8.9-1.25 1.3-2.62 1.3-3.93M892.08 681.55l-.27-.5c1.47-1 2.22-1.97 2.22-2.85 0-.18-.16-.34-.38-.34-.2 0-.47.1-.77.1-.98 0-1.54-.45-1.54-1.35 0-.9.64-1.5 1.6-1.5 1.2 0 2.12.92 2.12 2.3 0 1.6-1.14 3.27-2.97 4.15M924.58 660.45v.43c-.67 0-1.28.4-2.05.98l-7.92 5.98 4.48 7.8c.82 1.42 1.1 1.58 2.76 1.74v.42h-7.3v-.42l.76-.08c.83-.08 1.23-.4 1.23-.85 0-.56-.5-1.33-1-2.18l-3.26-5.7-1.72 6.28c-.22.75-.3 1.07-.3 1.36 0 .83.43 1.05 1.9 1.18v.42h-6.57v-.42c1.6-.2 1.75-.48 2.15-1.9l3.3-11.8c.18-.68.37-1.24.37-1.66 0-.72-.45-1.06-2.1-1.14v-.43h7.17v.43c-1.38.1-2.23.47-2.63 1.96l-1.4 5.16 4.06-2.9c2.36-1.67 3.8-3 3.8-3.64 0-.3-.32-.42-.96-.5l-.63-.08v-.43h5.88M928.07 670.55c0 .53-.43.96-.92.96-.54 0-.9-.4-.9-1 0-.57.38-.98.88-.98s.94.5.94 1.03m-.8 9.1l.26.22c-1.04 1.58-1.64 2.14-2.58 2.14-.62 0-.92-.32-.92-1.02 0-.38.13-1.03.42-2.1l.9-3.3c.1-.35.17-.7.17-.84 0-.37-.2-.43-1.2-.45v-.3c.73-.07 1.1-.12 3-.48l.08.06-1.77 6.44c-.1.32-.2.57-.2.83 0 .2.12.28.27.28.32 0 .78-.4 1.58-1.47"/><path d="M915 693.9h16.02v23.68H915z" fill="#fff" fill-opacity="0"/><path d="M930.1 701.6l.53.15c-1.12 6.74-4.7 14.92-14 15.26-.47 0-.95-.23-.95-.74 0-.14.03-.28.1-.45l3.13-11.33c.05-.17.08-.44.08-.58 0-.76-.75-.9-2.2-.93v-.54l5.54-1.06.1.07-3.57 12.88c6.94-.65 9.87-7.84 11.24-12.7M926.5 694.5h1c-.72 2.58-1.7 3.6-3.58 3.6-.85 0-1.36-.13-2.76-.8-1.3-.63-1.56-.76-2.18-.76-.78 0-1.36.5-1.73 1.56h-1c.52-2.2 1.75-3.44 3.45-3.44.75 0 1.57.2 2.38.62 1.47.75 1.94.95 2.62.95.8 0 1.23-.48 1.8-1.74"/><path d="M1420 515.54h52.07v23.16H1420z" fill="#fff" fill-opacity="0"/><path d="M1435.1 516.36l.53.13c-1.12 6.74-4.7 14.9-14 15.25-.47 0-.95-.24-.95-.75 0-.13.04-.27.1-.44l3.14-11.34c.03-.17.06-.44.06-.58 0-.75-.74-.9-2.2-.92v-.55l5.54-1.05.1.07-3.57 12.86c6.95-.65 9.88-7.83 11.24-12.7M1438.83 535.94l-.34-.65c1.87-1.27 2.82-2.53 2.82-3.65 0-.24-.2-.44-.48-.44-.27 0-.6.14-.98.14-1.26 0-1.98-.58-1.98-1.73s.82-1.93 2.04-1.93c1.54 0 2.73 1.2 2.73 2.96 0 2.04-1.47 4.2-3.82 5.3M1460.94 523.37l.07.04c3.28-5.24 5.63-7.28 7.53-7.28 1.3 0 2.42.6 2.42 1.94 0 .75-.1 1.23-.34 2.15l-2.95 10.94c-.58 2.1-1.02 4.77-1.02 5.82 0 .48.17.92.27 1.16h-2.5c-.3-.37-.36-.88-.36-1.5 0-.85.17-2.3 1.12-5.8l2.56-9.32c.1-.34.47-2 .47-2.45 0-.5-.04-1.2-.86-1.2-1.73 0-5.96 5.1-7.32 9.68l-1.1 3.6h-2.54l2.8-10.38c.23-.85.46-1.63.46-2.1 0-.32-.1-.6-.47-.6-.62 0-1.64 1.37-2.15 2l-.4-.35c.1-.18.47-.8.98-1.4 1-1.23 2.28-2.08 3.3-2.08 1.06 0 1.37.68 1.37 1.53 0 1.43-.96 4.43-1.33 5.62"/><defs><path d="M6 0l48-248h52L58 0H6" id="w"/><path d="M151-194c95 0 34 128 28 194h-49l25-134c0-29-45-25-59-9C67-111 69-48 56 0H6l36-190h47l-4 32c15-20 33-36 66-36" id="x"/><path d="M109 0H50L19-190h51L86-37l77-153h54" id="y"/><path d="M114-194c63-2 87 48 72 110H63c-3 28 1 55 31 54 21-1 32-13 37-29l44 13C160-14 137 4 91 4 41 4 11-22 11-73c0-71 33-119 103-121zm30 77c14-47-50-61-67-22-3 6-6 13-8 22h75" id="z"/><path d="M84-151c13-25 34-51 72-40l-8 41C67-170 71-64 56 0H6l36-190h47" id="A"/><path d="M144-137c-1-29-70-35-71-2 16 41 103 10 103 80C176 9 79 16 32-9 18-17 9-31 4-48l44-6c3 32 80 36 82 1-15-42-103-11-103-82 0-77 157-79 161-8" id="B"/><path d="M250-142C247-53 197 0 108 0H6l48-248c105-5 200 3 196 106zm-49 2c1-57-42-72-103-68L66-40c84 6 135-22 135-100" id="C"/><path d="M100 10C77 47 50 87-15 72l7-35c37 9 51-18 65-41L20-190h51L89-44l73-146h53" id="D"/><path d="M166-52c-4 17 5 29 24 23l-3 27c-30 11-74 1-67-34C105-15 91 4 56 4 23 4 3-15 2-49c0-64 63-67 128-67 10-22 3-53-29-45-13 3-22 10-25 24l-46-5c5-64 156-77 153 0-1 33-11 60-17 90zM97-88c-44-9-64 57-19 57 31 0 42-28 47-57H97" id="E"/><path d="M255-194c90 0 29 129 24 194h-49l25-136c-7-39-53-14-60 9-12 38-18 85-28 127h-49l25-136c2-29-39-23-50-7C69-108 68-47 56 0H6l36-190h48c-1 10-6 24-4 32 12-20 27-36 57-36s46 15 50 41c14-21 29-41 62-41" id="F"/><path d="M50-224l7-37h49l-7 37H50zM6 0l37-190h49L55 0H6" id="G"/><path d="M67-101c-8 29-7 73 27 71 23-2 32-16 39-37l48 9C170-19 141 4 91 4 36 4 7-28 12-86c6-75 61-124 140-103 26 7 40 29 43 59l-50 4c-1-20-9-34-29-34-35 0-41 29-49 59" id="H"/><path d="M161-211c-63 0-91 46-91 110 0 39 17 65 58 64 38-1 60-20 74-45l40 20C220-23 184 0 125 4 9 13-10-144 57-208c33-50 166-62 196-1 4 8 9 18 11 27l-48 12c-6-24-25-41-55-41" id="I"/><path d="M124-194c51 0 84 22 84 74C207-44 167 4 94 4 43 4 11-23 11-74c0-74 41-120 113-120zM99-30c46 0 58-42 58-86 0-27-11-44-37-44-44 0-55 40-57 84-1 27 10 45 36 46" id="J"/><path d="M72-63c-8 23 5 39 32 30L98-1C54 14 12-6 23-64l18-93H15l7-33h28l24-45h31l-8 45h35l-6 33H90" id="K"/><path d="M6 0l51-261h49L55 0H6" id="L"/><g id="a"><use transform="matrix(0.07469135802469135,0,0,0.07469135802469135,0,0)" xlink:href="#w"/><use transform="matrix(0.07469135802469135,0,0,0.07469135802469135,7.469135802469134,0)" xlink:href="#x"/><use transform="matrix(0.07469135802469135,0,0,0.07469135802469135,23.82654320987654,0)" xlink:href="#y"/><use transform="matrix(0.07469135802469135,0,0,0.07469135802469135,38.764814814814805,0)" xlink:href="#z"/><use transform="matrix(0.07469135802469135,0,0,0.07469135802469135,53.70308641975308,0)" xlink:href="#A"/><use transform="matrix(0.07469135802469135,0,0,0.07469135802469135,64.15987654320986,0)" xlink:href="#B"/><use transform="matrix(0.07469135802469135,0,0,0.07469135802469135,79.09814814814814,0)" xlink:href="#z"/><use transform="matrix(0.07469135802469135,0,0,0.07469135802469135,94.03641975308639,0)" xlink:href="#C"/><use transform="matrix(0.07469135802469135,0,0,0.07469135802469135,113.38148148148144,0)" xlink:href="#D"/><use transform="matrix(0.07469135802469135,0,0,0.07469135802469135,128.31975308641972,0)" xlink:href="#x"/><use transform="matrix(0.07469135802469135,0,0,0.07469135802469135,144.67716049382713,0)" xlink:href="#E"/><use transform="matrix(0.07469135802469135,0,0,0.07469135802469135,159.6154320987654,0)" xlink:href="#F"/><use transform="matrix(0.07469135802469135,0,0,0.07469135802469135,183.51666666666662,0)" xlink:href="#G"/><use transform="matrix(0.07469135802469135,0,0,0.07469135802469135,190.9858024691358,0)" xlink:href="#H"/><use transform="matrix(0.07469135802469135,0,0,0.07469135802469135,205.92407407407407,0)" xlink:href="#I"/><use transform="matrix(0.07469135802469135,0,0,0.07469135802469135,225.26913580246912,0)" xlink:href="#J"/><use transform="matrix(0.07469135802469135,0,0,0.07469135802469135,241.62654320987653,0)" xlink:href="#x"/><use transform="matrix(0.07469135802469135,0,0,0.07469135802469135,257.98395061728394,0)" xlink:href="#K"/><use transform="matrix(0.07469135802469135,0,0,0.07469135802469135,266.8722222222222,0)" xlink:href="#A"/><use transform="matrix(0.07469135802469135,0,0,0.07469135802469135,277.329012345679,0)" xlink:href="#J"/><use transform="matrix(0.07469135802469135,0,0,0.07469135802469135,293.6864197530864,0)" xlink:href="#L"/><use transform="matrix(0.07469135802469135,0,0,0.07469135802469135,301.1555555555555,0)" xlink:href="#L"/><use transform="matrix(0.07469135802469135,0,0,0.07469135802469135,308.6246913580246,0)" xlink:href="#z"/><use transform="matrix(0.07469135802469135,0,0,0.07469135802469135,323.5629629629629,0)" xlink:href="#A"/></g><path d="M118-107v75H92v-75H18v-26h74v-75h26v75h74v26h-74" id="M"/><use transform="matrix(0.06234567901234567,0,0,0.06234567901234567,0,0)" xlink:href="#M" id="b"/><path d="M96-169c-40 0-48 33-48 73s9 75 48 75c24 0 41-14 43-38l32 2c-6 37-31 61-74 61-59 0-76-41-82-99-10-93 101-131 147-64 4 7 5 14 7 22l-32 3c-4-21-16-35-41-35" id="N"/><path d="M100-194c62-1 85 37 85 99 1 63-27 99-86 99S16-35 15-95c0-66 28-99 85-99zM99-20c44 1 53-31 53-75 0-43-8-75-51-75s-53 32-53 75 10 74 51 75" id="O"/><path d="M117-194c89-4 53 116 60 194h-32v-121c0-31-8-49-39-48C34-167 62-67 57 0H25l-1-190h30c1 10-1 24 2 32 11-22 29-35 61-36" id="P"/><path d="M59-47c-2 24 18 29 38 22v24C64 9 27 4 27-40v-127H5v-23h24l9-43h21v43h35v23H59v120" id="Q"/><path d="M114-163C36-179 61-72 57 0H25l-1-190h30c1 12-1 29 2 39 6-27 23-49 58-41v29" id="R"/><path d="M24 0v-261h32V0H24" id="S"/><path d="M-5 72V49h209v23H-5" id="T"/><path d="M141-36C126-15 110 5 73 4 37 3 15-17 15-53c-1-64 63-63 125-63 3-35-9-54-41-54-24 1-41 7-42 31l-33-3c5-37 33-52 76-52 45 0 72 20 72 64v82c-1 20 7 32 28 27v20c-31 9-61-2-59-35zM48-53c0 20 12 33 32 33 41-3 63-29 60-74-43 2-92-5-92 41" id="U"/><path d="M206 0h-36l-40-164L89 0H53L-1-190h32L70-26l43-164h34l41 164 42-164h31" id="V"/><path d="M87 75C49 33 22-17 22-94c0-76 28-126 65-167h31c-38 41-64 92-64 168S80 34 118 75H87" id="W"/><g id="c"><use transform="matrix(0.06234567901234567,0,0,0.06234567901234567,0,0)" xlink:href="#N"/><use transform="matrix(0.06234567901234567,0,0,0.06234567901234567,11.22222222222222,0)" xlink:href="#O"/><use transform="matrix(0.06234567901234567,0,0,0.06234567901234567,23.691358024691354,0)" xlink:href="#P"/><use transform="matrix(0.06234567901234567,0,0,0.06234567901234567,36.16049382716049,0)" xlink:href="#Q"/><use transform="matrix(0.06234567901234567,0,0,0.06234567901234567,42.39506172839505,0)" xlink:href="#R"/><use transform="matrix(0.06234567901234567,0,0,0.06234567901234567,49.814197530864185,0)" xlink:href="#O"/><use transform="matrix(0.06234567901234567,0,0,0.06234567901234567,62.28333333333332,0)" xlink:href="#S"/><use transform="matrix(0.06234567901234567,0,0,0.06234567901234567,67.20864197530862,0)" xlink:href="#T"/><use transform="matrix(0.06234567901234567,0,0,0.06234567901234567,79.67777777777775,0)" xlink:href="#S"/><use transform="matrix(0.06234567901234567,0,0,0.06234567901234567,84.60308641975305,0)" xlink:href="#U"/><use transform="matrix(0.06234567901234567,0,0,0.06234567901234567,97.0722222222222,0)" xlink:href="#V"/><use transform="matrix(0.06234567901234567,0,0,0.06234567901234567,113.21975308641973,0)" xlink:href="#W"/></g><path d="M33-261c38 41 65 92 65 168S71 34 33 75H2C39 34 66-17 66-93S39-220 2-261h31" id="X"/><path d="M33-154v-36h34v36H33zM33 0v-36h34V0H33" id="Y"/><g id="d"><use transform="matrix(0.06234567901234567,0,0,0.06234567901234567,0,0)" xlink:href="#X"/><use transform="matrix(0.06234567901234567,0,0,0.06234567901234567,7.4191358024691345,0)" xlink:href="#Y"/></g><path d="M84 4C-5 8 30-112 23-190h32v120c0 31 7 50 39 49 72-2 45-101 50-169h31l1 190h-30c-1-10 1-25-2-33-11 22-28 36-60 37" id="Z"/><path d="M101-234c-31-9-42 10-38 44h38v23H63V0H32v-167H5v-23h27c-7-52 17-82 69-68v24" id="aa"/><path d="M100-194c63 0 86 42 84 106H49c0 40 14 67 53 68 26 1 43-12 49-29l28 8c-11 28-37 45-77 45C44 4 14-33 15-96c1-61 26-98 85-98zm52 81c6-60-76-77-97-28-3 7-6 17-6 28h103" id="ab"/><path d="M135-143c-3-34-86-38-87 0 15 53 115 12 119 90S17 21 10-45l28-5c4 36 97 45 98 0-10-56-113-15-118-90-4-57 82-63 122-42 12 7 21 19 24 35" id="ac"/><g id="e"><use transform="matrix(0.06234567901234567,0,0,0.06234567901234567,0,0)" xlink:href="#Q"/><use transform="matrix(0.06234567901234567,0,0,0.06234567901234567,6.234567901234566,0)" xlink:href="#U"/><use transform="matrix(0.06234567901234567,0,0,0.06234567901234567,18.7037037037037,0)" xlink:href="#Z"/><use transform="matrix(0.06234567901234567,0,0,0.06234567901234567,31.17283950617283,0)" xlink:href="#T"/><use transform="matrix(0.06234567901234567,0,0,0.06234567901234567,43.64197530864196,0)" xlink:href="#aa"/><use transform="matrix(0.06234567901234567,0,0,0.06234567901234567,49.87654320987653,0)" xlink:href="#O"/><use transform="matrix(0.06234567901234567,0,0,0.06234567901234567,62.34567901234566,0)" xlink:href="#R"/><use transform="matrix(0.06234567901234567,0,0,0.06234567901234567,69.7648148148148,0)" xlink:href="#N"/><use transform="matrix(0.06234567901234567,0,0,0.06234567901234567,80.98703703703701,0)" xlink:href="#ab"/><use transform="matrix(0.06234567901234567,0,0,0.06234567901234567,93.45617283950614,0)" xlink:href="#ac"/></g><path d="M241-173c-1 82-78 91-166 86L58 0H6l48-248c87 0 188-12 187 75zm-53 2c0-43-48-36-90-36l-15 80c50 0 105 7 105-44" id="ad"/><g id="f"><use transform="matrix(0.07469135802469135,0,0,0.07469135802469135,0,0)" xlink:href="#ad"/><use transform="matrix(0.07469135802469135,0,0,0.07469135802469135,17.925925925925924,0)" xlink:href="#w"/></g><path d="M30-248c87 1 191-15 191 75 0 78-77 80-158 76V0H30v-248zm33 125c57 0 124 11 124-50 0-59-68-47-124-48v98" id="ae"/><path d="M33 0v-248h34V0H33" id="af"/><g id="g"><use transform="matrix(0.06234567901234567,0,0,0.06234567901234567,0,0)" xlink:href="#ae"/><use transform="matrix(0.06234567901234567,0,0,0.06234567901234567,14.96296296296296,0)" xlink:href="#af"/><use transform="matrix(0.06234567901234567,0,0,0.06234567901234567,21.197530864197525,0)" xlink:href="#W"/></g><use transform="matrix(0.06234567901234567,0,0,0.06234567901234567,0,0)" xlink:href="#X" id="h"/><path d="M115-194c55 1 70 41 70 98S169 2 115 4C84 4 66-9 55-30l1 105H24l-1-265h31l2 30c10-21 28-34 59-34zm-8 174c40 0 45-34 45-75s-6-73-45-74c-42 0-51 32-51 76 0 43 10 73 51 73" id="ag"/><path d="M85-194c31 0 48 13 60 33l-1-100h32l1 261h-30c-2-10 0-23-3-31C134-8 116 4 85 4 32 4 16-35 15-94c0-66 23-100 70-100zm9 24c-40 0-46 34-46 75 0 40 6 74 45 74 42 0 51-32 51-76 0-42-9-74-50-73" id="ah"/><g id="i"><use transform="matrix(0.06234567901234567,0,0,0.06234567901234567,0,0)" xlink:href="#Z"/><use transform="matrix(0.06234567901234567,0,0,0.06234567901234567,12.469135802469133,0)" xlink:href="#ag"/><use transform="matrix(0.06234567901234567,0,0,0.06234567901234567,24.938271604938265,0)" xlink:href="#ah"/><use transform="matrix(0.06234567901234567,0,0,0.06234567901234567,37.4074074074074,0)" xlink:href="#U"/><use transform="matrix(0.06234567901234567,0,0,0.06234567901234567,49.87654320987653,0)" xlink:href="#Q"/><use transform="matrix(0.06234567901234567,0,0,0.06234567901234567,56.1111111111111,0)" xlink:href="#ab"/><use transform="matrix(0.06234567901234567,0,0,0.06234567901234567,68.58024691358023,0)" xlink:href="#W"/></g><use transform="matrix(0.06234567901234567,0,0,0.06234567901234567,0,0)" xlink:href="#X" id="j"/><path d="M130 0H70L30-248h54l24 206c31-72 69-137 103-206h54" id="ai"/><path d="M150-105c8-23 8-54-22-51-68 7-54 98-72 156H6l50-261h50L85-158c15-20 33-36 66-36 95 0 34 128 28 194h-49" id="aj"/><path d="M212 0l43-212L151 0h-37L90-212C82-137 65-70 52 0H6l48-248h70l20 187 93-187h69L258 0h-46" id="ak"/><path d="M132-28C118-9 101 4 69 4 30 4 10-23 10-62c0-70 24-129 92-132 31-1 47 14 56 35l19-102h49L179 0h-49zM62-69c0 22 7 39 29 39 45-2 54-45 57-90 2-27-10-40-33-40-44 0-53 48-53 91" id="al"/><path d="M183 0l-10-63H79L44 0H-7l138-248h61L234 0h-51zm-14-102l-15-108c-16 38-36 73-55 108h70" id="am"/><path d="M76-105c-23 59 45 89 88 55 12-10 18-24 22-45l30-153h51C238-143 259 4 118 4 48 4 11-39 25-112l26-136h52" id="an"/><g id="k"><use transform="matrix(0.07469135802469135,0,0,0.07469135802469135,0,0)" xlink:href="#ai"/><use transform="matrix(0.07469135802469135,0,0,0.07469135802469135,16.954938271604938,0)" xlink:href="#z"/><use transform="matrix(0.07469135802469135,0,0,0.07469135802469135,31.893209876543203,0)" xlink:href="#aj"/><use transform="matrix(0.07469135802469135,0,0,0.07469135802469135,48.25061728395061,0)" xlink:href="#G"/><use transform="matrix(0.07469135802469135,0,0,0.07469135802469135,55.71975308641974,0)" xlink:href="#H"/><use transform="matrix(0.07469135802469135,0,0,0.07469135802469135,70.65802469135801,0)" xlink:href="#L"/><use transform="matrix(0.07469135802469135,0,0,0.07469135802469135,78.12716049382715,0)" xlink:href="#z"/><use transform="matrix(0.07469135802469135,0,0,0.07469135802469135,93.06543209876541,0)" xlink:href="#ak"/><use transform="matrix(0.07469135802469135,0,0,0.07469135802469135,115.39814814814812,0)" xlink:href="#J"/><use transform="matrix(0.07469135802469135,0,0,0.07469135802469135,131.75555555555553,0)" xlink:href="#al"/><use transform="matrix(0.07469135802469135,0,0,0.07469135802469135,148.11296296296294,0)" xlink:href="#z"/><use transform="matrix(0.07469135802469135,0,0,0.07469135802469135,163.05123456790122,0)" xlink:href="#L"/><use transform="matrix(0.07469135802469135,0,0,0.07469135802469135,170.52037037037033,0)" xlink:href="#am"/><use transform="matrix(0.07469135802469135,0,0,0.07469135802469135,189.8654320987654,0)" xlink:href="#an"/><use transform="matrix(0.07469135802469135,0,0,0.07469135802469135,209.21049382716046,0)" xlink:href="#ai"/></g><path d="M177-190C167-65 218 103 67 71c-23-6-38-20-44-43l32-5c15 47 100 32 89-28v-30C133-14 115 1 83 1 29 1 15-40 15-95c0-56 16-97 71-98 29-1 48 16 59 35 1-10 0-23 2-32h30zM94-22c36 0 50-32 50-73 0-42-14-75-50-75-39 0-46 34-46 75s6 73 46 73" id="ao"/><path d="M179-190L93 31C79 59 56 82 12 73V49c39 6 53-20 64-50L1-190h34L92-34l54-156h33" id="ap"/><path d="M210-169c-67 3-38 105-44 169h-31v-121c0-29-5-50-35-48C34-165 62-65 56 0H25l-1-190h30c1 10-1 24 2 32 10-44 99-50 107 0 11-21 27-35 58-36 85-2 47 119 55 194h-31v-121c0-29-5-49-35-48" id="aq"/><path d="M24-231v-30h32v30H24zM24 0v-190h32V0H24" id="ar"/><g id="l"><use transform="matrix(0.06234567901234567,0,0,0.06234567901234567,0,0)" xlink:href="#ao"/><use transform="matrix(0.06234567901234567,0,0,0.06234567901234567,12.469135802469133,0)" xlink:href="#ab"/><use transform="matrix(0.06234567901234567,0,0,0.06234567901234567,24.938271604938265,0)" xlink:href="#Q"/><use transform="matrix(0.06234567901234567,0,0,0.06234567901234567,31.17283950617283,0)" xlink:href="#T"/><use transform="matrix(0.06234567901234567,0,0,0.06234567901234567,43.64197530864196,0)" xlink:href="#ah"/><use transform="matrix(0.06234567901234567,0,0,0.06234567901234567,56.11111111111109,0)" xlink:href="#ap"/><use transform="matrix(0.06234567901234567,0,0,0.06234567901234567,67.33333333333331,0)" xlink:href="#P"/><use transform="matrix(0.06234567901234567,0,0,0.06234567901234567,79.80246913580245,0)" xlink:href="#U"/><use transform="matrix(0.06234567901234567,0,0,0.06234567901234567,92.2716049382716,0)" xlink:href="#aq"/><use transform="matrix(0.06234567901234567,0,0,0.06234567901234567,110.91296296296295,0)" xlink:href="#ar"/><use transform="matrix(0.06234567901234567,0,0,0.06234567901234567,115.83827160493826,0)" xlink:href="#N"/><use transform="matrix(0.06234567901234567,0,0,0.06234567901234567,127.06049382716047,0)" xlink:href="#T"/><use transform="matrix(0.06234567901234567,0,0,0.06234567901234567,139.5296296296296,0)" xlink:href="#aq"/><use transform="matrix(0.06234567901234567,0,0,0.06234567901234567,158.17098765432095,0)" xlink:href="#O"/><use transform="matrix(0.06234567901234567,0,0,0.06234567901234567,170.6401234567901,0)" xlink:href="#ah"/><use transform="matrix(0.06234567901234567,0,0,0.06234567901234567,183.10925925925923,0)" xlink:href="#ab"/><use transform="matrix(0.06234567901234567,0,0,0.06234567901234567,195.57839506172837,0)" xlink:href="#S"/><use transform="matrix(0.06234567901234567,0,0,0.06234567901234567,200.50370370370368,0)" xlink:href="#W"/></g><path d="M240 0l2-218c-23 76-54 145-80 218h-23L58-218 59 0H30v-248h44l77 211c21-75 51-140 76-211h43V0h-30" id="as"/><path d="M68-38c1 34 0 65-14 84H32c9-13 17-26 17-46H33v-38h35" id="at"/><g id="m"><use transform="matrix(0.06234567901234567,0,0,0.06234567901234567,0,0)" xlink:href="#as"/><use transform="matrix(0.06234567901234567,0,0,0.06234567901234567,18.641358024691353,0)" xlink:href="#at"/></g><path d="M212-179c-10-28-35-45-73-45-59 0-87 40-87 99 0 60 29 101 89 101 43 0 62-24 78-52l27 14C228-24 195 4 139 4 59 4 22-46 18-125c-6-104 99-153 187-111 19 9 31 26 39 46" id="au"/><g id="n"><use transform="matrix(0.06234567901234567,0,0,0.06234567901234567,0,0)" xlink:href="#au"/><use transform="matrix(0.06234567901234567,0,0,0.06234567901234567,16.147530864197527,0)" xlink:href="#at"/></g><path d="M30-248c118-7 216 8 213 122C240-48 200 0 122 0H30v-248zM63-27c89 8 146-16 146-99s-60-101-146-95v194" id="av"/><g id="o"><use transform="matrix(0.06234567901234567,0,0,0.06234567901234567,0,0)" xlink:href="#av"/><use transform="matrix(0.06234567901234567,0,0,0.06234567901234567,16.147530864197527,0)" xlink:href="#at"/></g><use transform="matrix(0.06234567901234567,0,0,0.06234567901234567,0,0)" xlink:href="#ao" id="p"/><use transform="matrix(0.07469135802469135,0,0,0.07469135802469135,0,0)" xlink:href="#M" id="q"/><g id="r"><use transform="matrix(0.07469135802469135,0,0,0.07469135802469135,0,0)" xlink:href="#ae"/><use transform="matrix(0.07469135802469135,0,0,0.07469135802469135,17.925925925925924,0)" xlink:href="#af"/></g><path d="M108 0H70L1-190h34L89-25l56-165h34" id="aw"/><path d="M106-169C34-169 62-67 57 0H25v-261h32l-1 103c12-21 28-36 61-36 89 0 53 116 60 194h-32v-121c2-32-8-49-39-48" id="ax"/><g id="s"><use transform="matrix(0.07469135802469135,0,0,0.07469135802469135,0,0)" xlink:href="#aw"/><use transform="matrix(0.07469135802469135,0,0,0.07469135802469135,13.444444444444443,0)" xlink:href="#ab"/><use transform="matrix(0.07469135802469135,0,0,0.07469135802469135,28.38271604938271,0)" xlink:href="#ax"/><use transform="matrix(0.07469135802469135,0,0,0.07469135802469135,43.32098765432098,0)" xlink:href="#ar"/><use transform="matrix(0.07469135802469135,0,0,0.07469135802469135,49.2216049382716,0)" xlink:href="#N"/><use transform="matrix(0.07469135802469135,0,0,0.07469135802469135,62.66604938271604,0)" xlink:href="#S"/><use transform="matrix(0.07469135802469135,0,0,0.07469135802469135,68.56666666666666,0)" xlink:href="#ab"/></g><path d="M155 0L90-199 52 0H6l48-248h62l66 201 38-201h46L218 0h-63" id="ay"/><g id="t"><use transform="matrix(0.07469135802469135,0,0,0.07469135802469135,0,0)" xlink:href="#I"/><use transform="matrix(0.07469135802469135,0,0,0.07469135802469135,19.34506172839506,0)" xlink:href="#J"/><use transform="matrix(0.07469135802469135,0,0,0.07469135802469135,35.70246913580246,0)" xlink:href="#x"/><use transform="matrix(0.07469135802469135,0,0,0.07469135802469135,52.05987654320987,0)" xlink:href="#K"/><use transform="matrix(0.07469135802469135,0,0,0.07469135802469135,60.948148148148135,0)" xlink:href="#A"/><use transform="matrix(0.07469135802469135,0,0,0.07469135802469135,71.40493827160492,0)" xlink:href="#J"/><use transform="matrix(0.07469135802469135,0,0,0.07469135802469135,87.76234567901233,0)" xlink:href="#L"/><use transform="matrix(0.07469135802469135,0,0,0.07469135802469135,95.23148148148147,0)" xlink:href="#ay"/><use transform="matrix(0.07469135802469135,0,0,0.07469135802469135,114.57654320987652,0)" xlink:href="#J"/><use transform="matrix(0.07469135802469135,0,0,0.07469135802469135,130.93395061728393,0)" xlink:href="#al"/><use transform="matrix(0.07469135802469135,0,0,0.07469135802469135,147.29135802469133,0)" xlink:href="#z"/></g><g id="u"><use transform="matrix(0.06234567901234567,0,0,0.06234567901234567,0,0)" xlink:href="#R"/><use transform="matrix(0.06234567901234567,0,0,0.06234567901234567,7.4191358024691345,0)" xlink:href="#Z"/><use transform="matrix(0.06234567901234567,0,0,0.06234567901234567,19.888271604938268,0)" xlink:href="#P"/><use transform="matrix(0.06234567901234567,0,0,0.06234567901234567,32.3574074074074,0)" xlink:href="#W"/></g><g id="v"><use transform="matrix(0.07469135802469135,0,0,0.07469135802469135,0,0)" xlink:href="#N"/><use transform="matrix(0.07469135802469135,0,0,0.07469135802469135,13.444444444444443,0)" xlink:href="#O"/><use transform="matrix(0.07469135802469135,0,0,0.07469135802469135,28.38271604938271,0)" xlink:href="#P"/><use transform="matrix(0.07469135802469135,0,0,0.07469135802469135,43.32098765432098,0)" xlink:href="#Q"/><use transform="matrix(0.07469135802469135,0,0,0.07469135802469135,50.79012345679011,0)" xlink:href="#R"/><use transform="matrix(0.07469135802469135,0,0,0.07469135802469135,59.678395061728374,0)" xlink:href="#O"/><use transform="matrix(0.07469135802469135,0,0,0.07469135802469135,74.61666666666665,0)" xlink:href="#S"/><use transform="matrix(0.07469135802469135,0,0,0.07469135802469135,80.51728395061727,0)" xlink:href="#S"/><use transform="matrix(0.07469135802469135,0,0,0.07469135802469135,86.41790123456789,0)" xlink:href="#ab"/><use transform="matrix(0.07469135802469135,0,0,0.07469135802469135,101.35617283950616,0)" xlink:href="#R"/></g></defs></g></svg>